<?xml version="1.0" standalone="no"?>
<!DOCTYPE svg PUBLIC "-//W3C//DTD SVG 20010904//EN"
 "http://www.w3.org/TR/2001/REC-SVG-20010904/DTD/svg10.dtd">
<svg version="1.0" xmlns="http://www.w3.org/2000/svg"
 width="163.000000pt" height="154.000000pt" viewBox="0 0 163.000000 154.000000"
 preserveAspectRatio="xMidYMid meet">
<metadata>
Created by potrace 1.12, written by Peter Selinger 2001-2015
</metadata>
<g transform="translate(-178.000000,330.000000) scale(0.100000,-0.100000)"
fill="#000000" stroke="none">
<path d="M1780 3170 l0 -130 70 0 70 0 0 -630 0 -630 150 0 c131 0 150 2 150
16 0 11 5 14 18 9 97 -40 262 -47 363 -15 170 53 294 181 344 353 20 69 22
222 5 287 -50 187 -210 344 -388 381 -80 16 -224 7 -289 -20 l-53 -21 0 265 0
265 -220 0 -220 0 0 -130z m758 -644 c98 -51 154 -191 122 -306 -31 -111 -126
-184 -239 -183 -67 1 -139 31 -176 75 -24 29 -25 34 -25 178 l0 149 31 36 c18
20 45 43 61 51 65 34 161 34 226 0z"/>
<path d="M2330 3240 l0 -60 540 0 540 0 0 60 0 60 -540 0 -540 0 0 -60z"/>
<path d="M2330 3000 l0 -60 540 0 540 0 0 60 0 60 -540 0 -540 0 0 -60z"/>
<path d="M2804 2807 c17 -12 49 -39 72 -59 l41 -38 247 0 246 0 0 60 0 60
-317 -1 -318 0 29 -22z"/>
<path d="M3002 2583 c2 -5 12 -32 23 -60 l20 -53 182 0 183 0 0 60 0 60 -206
0 c-113 0 -204 -3 -202 -7z"/>
<path d="M3070 2290 l0 -60 170 0 170 0 0 60 0 60 -170 0 -170 0 0 -60z"/>
<path d="M3025 2068 c-11 -29 -21 -56 -23 -60 -2 -5 89 -8 202 -8 l206 0 0 60
0 60 -183 0 -182 0 -20 -52z"/>
<path d="M2889 1854 c-13 -15 -46 -42 -74 -60 l-50 -34 323 0 322 0 0 60 0 60
-248 0 -249 0 -24 -26z"/>
</g>
</svg>
